<svg width="20" height="20" viewBox="0 0 20 20" fill="none" xmlns="http://www.w3.org/2000/svg">
<path fill-rule="evenodd" clip-rule="evenodd" d="M13.6041 12.4159L18.0875 16.8993C18.2451 17.057 18.3335 17.2708 18.3335 17.4937C18.3334 17.7167 18.2447 17.9304 18.0871 18.088C17.9294 18.2456 17.7155 18.3341 17.4926 18.334C17.2697 18.3339 17.0559 18.2453 16.8983 18.0876L12.415 13.6043C11.0747 14.6423 9.38937 15.1308 7.70174 14.9704C6.01412 14.81 4.451 14.0126 3.33037 12.7406C2.20975 11.4686 1.61579 9.81746 1.66935 8.12307C1.7229 6.42868 2.41993 4.81833 3.61864 3.61962C4.81735 2.4209 6.4277 1.72387 8.12209 1.67032C9.81648 1.61677 11.4676 2.21072 12.7396 3.33135C14.0117 4.45197 14.809 6.01509 14.9694 7.70272C15.1299 9.39034 14.6414 11.0757 13.6033 12.4159H13.6041ZM8.3333 13.3334C9.65938 13.3334 10.9312 12.8067 11.8688 11.869C12.8065 10.9313 13.3333 9.65953 13.3333 8.33345C13.3333 7.00736 12.8065 5.73559 11.8688 4.79791C10.9312 3.86023 9.65938 3.33345 8.3333 3.33345C7.00722 3.33345 5.73545 3.86023 4.79777 4.79791C3.86009 5.73559 3.3333 7.00736 3.3333 8.33345C3.3333 9.65953 3.86009 10.9313 4.79777 11.869C5.73545 12.8067 7.00722 13.3334 8.3333 13.3334V13.3334Z" fill="#ACACAC"/>
</svg>
